<svg width="121" height="40" viewBox="0 0 121 40" fill="none" xmlns="http://www.w3.org/2000/svg">
<path fill-rule="evenodd" clip-rule="evenodd" d="M0 40H121V0H0V40ZM117.76 36.8707H3.23981V3.12925H117.76V36.8707ZM53.2259 8.77728C52.3376 9.05156 51.1647 9.80614 50.7469 10.6993C50.7469 10.6993 50.5031 11.101 50.4988 11.6327C50.4945 12.1643 50.4988 20.1361 50.4988 20.1361C50.4988 28.495 50.5039 28.6499 50.7955 29.2586C51.2291 30.1638 51.8907 30.823 52.7974 31.2531C53.5028 31.5876 53.7567 31.6327 54.936 31.6327C56.668 31.6327 57.3798 31.3784 58.243 30.4509C59.2376 29.3824 59.3604 28.8129 59.3673 25.2381L59.3731 22.2449L55.946 22.1687L55.8988 25.1384C55.8581 27.7024 55.8175 28.1581 55.6018 28.4758C55.2984 28.9224 54.8041 28.9569 54.4296 28.5571C54.1721 28.2824 54.1612 27.9472 54.1612 20.2918C54.1612 15.9034 54.2107 12.1419 54.2711 11.9329C54.4586 11.2844 55.3383 11.171 55.677 11.7517C55.7883 11.9423 55.8635 13.0271 55.8979 14.9361L55.9502 17.8313L59.3731 17.7551L59.3661 14.8299C59.3603 12.4106 59.3163 11.783 59.1117 11.2003C58.756 10.1878 58.1938 9.51388 57.3198 9.05265C56.6479 8.6981 56.3946 8.64503 55.2177 8.61238C54.3252 8.58775 53.6619 8.64258 53.2259 8.77728ZM14.7295 9.01007C14.692 9.18041 14.0845 14.0646 13.3792 19.8639C12.674 25.6633 12.061 30.6378 12.017 30.9184L11.9372 31.4286H13.716C15.3029 31.4286 15.4948 31.4034 15.4948 31.1951C15.4948 30.723 15.793 27.1332 15.8568 26.8367C15.9169 26.5576 16.0026 26.5306 16.8293 26.5306H17.7357L17.8059 26.9728C17.8729 27.3963 18.1724 30.906 18.1716 31.2585C18.1713 31.3858 18.631 31.4286 20.0023 31.4286C21.8097 31.4286 21.8334 31.4246 21.8258 31.1224C21.8214 30.954 21.2033 25.8571 20.452 19.7959L19.086 8.77551L16.9418 8.73796C14.8107 8.70068 14.7972 8.70231 14.7295 9.01007ZM25.8833 8.78354C25.8253 8.8415 25.7777 13.9603 25.7777 20.1588V31.4286H29.5809V22.8571H30.6827C32.5718 22.8571 33.7969 22.2208 34.5122 20.8679C34.8601 20.2098 34.8636 20.1683 34.906 16.0778C34.9562 11.2592 34.907 10.9818 33.8168 9.92871C32.8014 8.94803 32.2787 8.82272 28.8766 8.74463C27.2884 8.70816 25.9413 8.72571 25.8833 8.78354ZM39.3004 31.4286H46.4843V28.4438L43.0332 28.3673L42.958 21.4966H46.2026V18.5124L43.0332 18.4354L42.9577 11.8367H46.4843V8.70748H39.3004V31.4286ZM63.7633 8.79823C63.7116 8.84803 63.6694 13.9603 63.6694 20.1588V31.4286H67.4726V21.6327H69.4447V31.4365L73.1775 31.3605V8.77551H69.5151L69.4412 18.5034H67.4726V8.70748H65.665C64.6706 8.70748 63.8149 8.7483 63.7633 8.79823ZM79.951 8.82449C79.8675 8.95524 77.1921 30.5395 77.1921 31.0834V31.4286H80.5599L80.6301 30.9864C80.6971 30.5629 80.9966 27.0532 80.9958 26.7007C80.9955 26.5811 81.2826 26.5306 81.9628 26.5306H82.9301L83.0987 28.7415C83.1915 29.9576 83.28 31.0442 83.2952 31.1565C83.318 31.3239 83.6557 31.3673 85.1795 31.3985L87.036 31.4363L86.9683 30.9903C86.9027 30.5584 84.2352 8.85959 84.2352 8.75796C84.2352 8.64912 80.0213 8.71469 79.951 8.82449ZM90.9965 31.4286H94.6589V8.70748H90.9965V31.4286ZM99.2313 8.87755C99.1944 8.97116 99.1806 14.068 99.2006 20.2041L99.2369 31.3605L102.406 31.4376L102.415 24.8684C102.42 21.2554 102.474 18.4218 102.536 18.5714C102.598 18.7211 103.208 21.6752 103.893 25.1361L105.138 31.4286H108.463V8.6985L105.294 8.77551L105.153 19.8901L104.194 14.4095C103.667 11.3952 103.204 8.87918 103.165 8.81823C103.042 8.62626 99.3083 8.68245 99.2313 8.87755ZM31.0671 12.0365C31.2265 12.4049 31.2712 13.238 31.2712 15.8371C31.2712 19.9148 31.2132 20.1297 30.1091 20.134L29.5809 20.1361V11.5646H30.222C30.8203 11.5646 30.8767 11.5961 31.0671 12.0365ZM17.4051 22.2109L17.5071 23.5374H16.1991V22.9578C16.1991 22.4366 16.4464 19.1242 16.7146 16.0544C16.8141 14.9158 16.8194 14.9439 17.0595 17.8912C17.1936 19.5374 17.3491 21.4812 17.4051 22.2109ZM82.333 19.3878C82.4547 21.034 82.591 22.6412 82.6359 22.9592L82.7177 23.5374H81.9974C81.4046 23.5374 81.2774 23.4952 81.2789 23.2993C81.2799 23.1684 81.3713 22.0204 81.4822 20.7483C81.5929 19.4762 81.7322 17.6701 81.7918 16.7347C81.8869 15.2393 81.9126 15.1162 82.0059 15.7143C82.0642 16.0884 82.2114 17.7415 82.333 19.3878Z" fill="white"/>
</svg>
