<svg width="163" height="40" viewBox="0 0 163 40" fill="none" xmlns="http://www.w3.org/2000/svg">
<path d="M13.8121 6.22779C12.2434 14.5897 7.18363 20.2746 0.428486 20.2746L0.428223 35.3808C9.96563 35.3808 12.3088 33.6712 16.2429 28.3475C18.566 25.2037 22.3984 20.2206 27.6006 20.2206V5H15.2548C14.543 5 13.9435 5.52691 13.8121 6.22779Z" fill="white"/>
<path d="M41.4043 34.1575C42.9729 25.7956 48.0327 20.1107 54.7879 20.1107L54.7881 5.00464C45.2507 5.00464 42.9076 6.71422 38.9735 12.0378C36.6502 15.1816 32.818 20.1647 27.6157 20.1647V35.3854H39.9616C40.6732 35.3854 41.2728 34.8585 41.4043 34.1575Z" fill="white"/>
<path d="M63.4693 19.0263C64.2552 16.4997 66.4164 14.334 70.5751 14.334C74.7667 14.334 77.3864 16.5653 77.3864 20.5358V31.0032H73.9481V28.9688H73.5224C73.0639 29.8548 71.9177 31.4626 68.8396 31.4626C65.4995 31.4626 62.9126 29.5923 62.9126 26.311C62.9126 22.9639 65.4995 21.2577 69.1016 21.2577H73.8825V20.2732C73.8825 18.5341 72.8019 17.2544 70.5425 17.2544C68.2829 17.2544 67.1368 18.4685 66.8093 20.142L63.4693 19.0263ZM66.5147 26.2125C66.5147 27.5907 67.5952 28.5095 69.5274 28.5095C72.0815 28.5095 73.8825 26.9015 73.8825 24.3422V24.0467H69.3308C67.5952 24.0467 66.5147 24.8671 66.5147 26.2125Z" fill="white"/>
<path d="M77.6782 14.8269H81.575L85.9303 27.9195H86.2577L90.613 14.8269H94.5098L88.7464 31.0039H83.4743L77.6782 14.8269Z" fill="white"/>
<path d="M95.1412 19.0263C95.9271 16.4997 98.0884 14.334 102.247 14.334C106.439 14.334 109.058 16.5653 109.058 20.5358V31.0032H105.62V28.9688H105.194C104.736 29.8548 103.59 31.4626 100.512 31.4626C97.1714 31.4626 94.5845 29.5923 94.5845 26.311C94.5845 22.9639 97.1714 21.2577 100.774 21.2577H105.555V20.2732C105.555 18.5341 104.474 17.2544 102.214 17.2544C99.9549 17.2544 98.8088 18.4685 98.4814 20.142L95.1412 19.0263ZM98.1865 26.2125C98.1865 27.5907 99.2673 28.5095 101.199 28.5095C103.753 28.5095 105.555 26.9015 105.555 24.3422V24.0467H101.003C99.2673 24.0467 98.1865 24.8671 98.1865 26.2125Z" fill="white"/>
<path d="M111.85 14.8261H115.354V17.3199H115.682C116.402 15.9089 117.843 14.5308 120.921 14.5308C124.621 14.5308 127.241 17.1558 127.241 21.2903V31.0031H123.639V21.4873C123.639 18.7637 122.231 17.484 119.84 17.484C117.155 17.484 115.419 19.3544 115.419 22.7013V31.0031H111.85V14.8261Z" fill="white"/>
<path d="M127.905 17.7466V14.8262H132.26V9.54321H135.862V14.8262H140.578V17.7466H135.862V27.0656C135.862 27.7219 136.19 28.0501 136.779 28.0501H140.087V31.0032H135.535C133.57 31.0032 132.26 29.6908 132.26 27.6563V17.7466H127.905Z" fill="white"/>
<path d="M141.678 10.0031C141.678 8.46092 142.824 7.41089 144.33 7.41089C145.837 7.41089 146.983 8.46092 146.983 10.0031C146.983 11.5126 145.837 12.5626 144.33 12.5626C142.824 12.5626 141.678 11.5126 141.678 10.0031ZM146.132 14.8268V31.0038H142.562V14.8268H146.132Z" fill="white"/>
<path d="M148.88 19.2569C148.88 16.1396 151.369 14.3677 155.168 14.3677C158.802 14.3677 161.16 16.1396 161.88 18.8631L158.605 19.8476C158.212 17.8787 156.936 17.124 155.168 17.124C153.399 17.124 152.352 17.8459 152.352 19.0272C152.352 20.2741 153.432 20.7992 155.201 21.1272L156.313 21.3242C159.85 21.9805 162.503 22.9321 162.503 26.2462C162.503 29.5604 159.883 31.4635 155.822 31.4635C151.664 31.4635 148.782 29.5931 148.225 25.9837L151.565 25.1633C152.024 27.8213 153.726 28.6744 155.822 28.6744C157.886 28.6744 159.031 27.7555 159.031 26.5087C159.031 25.2618 157.95 24.7368 155.822 24.343L154.709 24.1461C151.434 23.5555 148.88 22.3414 148.88 19.2569Z" fill="white"/>
</svg>
