<svg width="168" height="40" viewBox="0 0 168 40" fill="none" xmlns="http://www.w3.org/2000/svg">
<path d="M16.3758 6.67132C19.263 6.47954 22.2056 7.05488 24.7873 8.34255C28.6183 10.2056 31.672 13.548 33.0878 17.4932C33.7263 19.2467 34.0594 21.0823 34.0594 22.9453V29.822C34.0594 30.096 34.0594 30.3973 34.0039 30.6713C33.8373 31.3562 33.3377 31.9864 32.6714 32.2878C32.1995 32.5069 31.672 32.5343 31.2001 32.4521C30.1452 32.2604 29.3123 31.2741 29.3123 30.2056C29.3123 28.0686 29.3123 25.9316 29.3123 23.7946C29.3401 23.1919 29.3401 22.5343 29.007 22.0138C28.4795 21.0275 27.147 20.5617 26.1199 20.9727C25.2315 21.2741 24.593 22.1782 24.5653 23.1097C24.5653 25.2741 24.5653 27.4384 24.5653 29.6028C24.5653 30.0138 24.593 30.4247 24.4542 30.8083C24.2321 31.5754 23.5936 32.1782 22.8163 32.3973C21.7892 32.6713 20.6232 32.233 20.1235 31.3015C19.7627 30.7535 19.7904 30.0686 19.8182 29.4384C19.8182 27.2741 19.8182 25.1371 19.8182 22.9727C19.7904 21.8768 18.8743 20.8905 17.7916 20.7535C17.0699 20.6439 16.3203 20.8905 15.7929 21.3836C15.3209 21.822 15.0711 22.4521 15.0711 23.0823V29.3562C15.0711 29.8768 15.1266 30.4247 14.9323 30.9179C14.6269 31.822 13.7108 32.4795 12.7392 32.4521C11.7398 32.5069 10.7682 31.822 10.4628 30.9179C10.2962 30.4521 10.324 29.9864 10.324 29.4932C10.324 27.3289 10.324 25.1645 10.324 23.0001C10.324 21.9316 9.46342 20.9453 8.40851 20.7535C7.43689 20.5617 6.38198 21.0275 5.88229 21.9042C5.68796 22.2604 5.57692 22.6713 5.57692 23.0823V30.1234C5.57692 30.8083 5.27155 31.4932 4.7441 31.9316C3.93904 32.6165 2.63428 32.6713 1.80146 32.0412C1.19072 31.6302 0.829834 30.9179 0.829834 30.1782V23.0549C0.829834 20.3699 1.52385 17.685 2.82861 15.3015C3.88352 13.3563 5.35483 11.6302 7.10376 10.2604C9.68551 8.12337 12.989 6.8631 16.3758 6.67132Z" fill="white"/>
<path d="M81.2525 14.9179H77.6436C77.7824 12.4247 78.3099 10.1782 80.614 8.75351C82.9181 7.35625 85.4444 7.02748 88.0816 7.24666C89.4974 7.35625 90.9132 7.65762 92.218 8.26036C94.5221 9.30146 95.6603 11.0823 95.6603 13.5754C95.6603 17.9864 95.6603 22.3974 95.6603 26.8083C95.6603 28.4247 95.9935 28.7261 97.6313 28.5617C97.7979 28.5343 97.9922 28.5069 98.1588 28.4795C98.1866 28.5617 98.1866 28.6439 98.1866 28.6987V31.3836C96.8818 31.822 95.5493 31.959 94.2445 31.6028C93.2729 31.3289 92.6622 30.6439 92.329 29.7398C92.1625 29.2741 92.0514 28.7809 91.9126 28.2604C91.7738 28.4247 91.6628 28.5617 91.524 28.6987C88.6646 31.548 85.2778 32.7535 81.2803 31.7398C78.4487 31.0275 76.5054 28.4795 76.4221 25.5754C76.3944 24.6439 76.4776 23.7124 76.6997 22.8083C77.2272 20.7261 78.7263 19.4658 80.614 18.6165C81.9465 18.0138 83.3901 17.8494 84.8336 17.6576C86.527 17.4384 88.1927 17.2467 89.8861 17.0001C91.0243 16.8357 91.6073 16.233 91.7738 15.1097C92.1347 12.8357 91.1076 11.3289 88.8867 10.7809C87.5542 10.4521 86.1939 10.3974 84.8336 10.6439C82.8349 11.0001 81.7244 12.1234 81.3358 14.0686C81.3635 14.3426 81.308 14.6165 81.2525 14.9179ZM91.8849 19.3015C90.2192 20.1782 88.6091 20.3974 86.9712 20.6439C85.6109 20.8631 84.2229 21.0549 82.8904 21.4658C81.1415 22.0412 80.3364 23.4658 80.503 25.3836C80.6418 26.9727 81.7244 28.2604 83.4734 28.5343C86.1662 28.9727 88.5536 28.233 90.4413 26.2604C90.9965 25.685 91.4407 24.8631 91.5517 24.096C91.8016 22.5617 91.7738 21.0001 91.8849 19.3015ZM143.326 23.9042C143.242 24.2878 143.187 24.6165 143.103 24.9179C141.549 29.6028 138.384 31.6028 134.553 32.0412C127.918 32.7535 124.115 28.4795 123.143 23.9316C122.366 20.3152 122.477 16.7261 124.087 13.3289C125.614 10.1234 128.057 8.01378 131.694 7.38365C136.052 6.61652 142.215 8.75351 143.242 15.4658C143.52 17.1919 143.575 18.9727 143.742 20.7809H126.863C127.002 23.2467 127.391 25.548 129.223 27.3289C129.973 28.0686 130.944 28.4247 131.999 28.6165C135.414 29.2193 138.245 27.6028 139.356 24.3426C139.467 23.9864 139.633 23.8768 139.994 23.9042C141.077 23.9042 142.16 23.9042 143.326 23.9042ZM127.002 17.6028H139.633C139.495 16.1508 139.245 14.8083 138.551 13.548C137.884 12.3426 136.913 11.4658 135.58 11.0275C131.222 9.54804 126.725 12.9727 127.002 17.6028ZM152.403 31.2467H148.572V7.73982H152.209V11.0275C152.487 10.7261 152.653 10.5343 152.82 10.3426C155.429 7.41105 158.705 6.64392 162.425 7.54803C165.007 8.17817 166.45 9.98639 166.95 12.5069C167.144 13.548 167.283 14.6165 167.283 15.6576C167.311 20.6987 167.311 25.7398 167.311 30.7809C167.311 30.9179 167.283 31.0549 167.283 31.2193H163.369V30.5891C163.369 25.8768 163.397 21.1645 163.341 16.4521C163.341 15.411 163.174 14.3426 162.869 13.3289C162.369 11.685 161.037 10.8083 159.288 10.7261C156.095 10.6165 153.569 12.2878 152.792 15.0823C152.514 16.096 152.431 17.1645 152.431 18.233C152.403 22.3699 152.403 26.4795 152.403 30.5617V31.2467ZM101.906 7.73982H105.599V17.7124C105.821 17.4932 105.96 17.3836 106.098 17.2467C109.124 14.2056 112.15 11.1371 115.176 8.09598C115.426 7.822 115.676 7.71242 116.064 7.71242C117.48 7.73981 118.924 7.71242 120.478 7.71242C120.256 7.9316 120.145 8.06858 120.006 8.20556C117.341 10.8357 114.704 13.4932 112.011 16.096C111.706 16.3974 111.706 16.5891 111.9 16.9179C114.815 21.4932 117.702 26.0686 120.589 30.6439C120.701 30.8083 120.784 30.9727 120.923 31.2193C120.728 31.2467 120.589 31.2467 120.423 31.2467C119.09 31.2467 117.786 31.2467 116.453 31.2467C116.092 31.2467 115.926 31.1097 115.731 30.8357C113.51 27.1645 111.29 23.4932 109.069 19.7946C108.958 19.6302 108.874 19.4658 108.736 19.2741C107.708 20.2878 106.709 21.2467 105.71 22.2604C105.571 22.3973 105.543 22.6439 105.543 22.8357C105.543 25.4111 105.543 27.9864 105.543 30.5617V31.2193C104.821 31.2193 104.1 31.2193 103.406 31.2193C102.906 31.2193 102.212 31.3563 101.934 31.0823C101.684 30.8631 101.823 30.1508 101.823 29.6576V8.36995C101.906 8.23296 101.906 8.01379 101.906 7.73982ZM59.2938 7.71242C56.2956 10.6439 53.3807 13.5206 50.4381 16.3974C53.6028 21.3837 56.6842 26.2604 59.8212 31.2467C59.5714 31.2467 59.4048 31.2741 59.2382 31.2741C57.9612 31.2741 56.6565 31.2741 55.3795 31.2741C55.0186 31.2741 54.7965 31.1371 54.6022 30.8357C52.3813 27.1645 50.1605 23.4932 47.9396 19.7946C47.8563 19.6302 47.7453 19.4932 47.6065 19.2741C47.0513 19.8494 46.5516 20.4795 45.9408 20.9179C44.6916 21.8494 44.3307 23.0001 44.414 24.5343C44.5528 26.5343 44.4418 28.5617 44.4418 30.5617V31.2193H40.7773V7.73982H44.4418V17.548C44.525 17.6028 44.6083 17.6576 44.6638 17.7124C44.7749 17.548 44.8304 17.3563 44.9415 17.2193C47.9396 14.1782 50.9655 11.1645 53.9637 8.09598C54.2413 7.822 54.4912 7.68502 54.9076 7.71242C56.1568 7.73981 57.406 7.71242 58.6553 7.71242C58.8496 7.71242 59.0162 7.71242 59.2938 7.71242ZM66.6226 11.6302C68.4826 8.94529 70.4536 6.69872 74.118 7.35626V11.3836C73.1464 11.4384 72.1747 11.4111 71.2586 11.6028C69.01 12.0686 67.2611 14.096 66.9002 16.5617C66.8447 17.0549 66.7892 17.548 66.7892 18.0412C66.7892 22.233 66.7892 26.4247 66.7892 30.6165V31.2741H63.0137V7.79461H66.6226C66.6226 9.02748 66.6226 10.2604 66.6226 11.6302Z" fill="white"/>
</svg>
