<svg width="179" height="40" viewBox="0 0 179 40" fill="none" xmlns="http://www.w3.org/2000/svg">
<path d="M67.3342 30.6603V11.5488H70.2565V28.178H79.0328V30.6603H67.3342Z" fill="white"/>
<path d="M82.4057 30.6603V16.3267H85.2334V30.6603H82.4057ZM83.8338 14.1151C83.342 14.1151 82.9196 13.9533 82.5665 13.6298C82.2197 13.3001 82.0464 12.9081 82.0464 12.454C82.0464 11.9936 82.2197 11.6017 82.5665 11.2782C82.9196 10.9485 83.342 10.7836 83.8338 10.7836C84.3256 10.7836 84.7448 10.9485 85.0916 11.2782C85.4446 11.6017 85.6212 11.9936 85.6212 12.454C85.6212 12.9081 85.4446 13.3001 85.0916 13.6298C84.7448 13.9533 84.3256 14.1151 83.8338 14.1151Z" fill="white"/>
<path d="M89.3039 30.6603V16.3267H92.0181V18.6596H92.1978C92.5004 17.8695 92.9953 17.2536 93.6826 16.8119C94.3698 16.364 95.1926 16.1401 96.1509 16.1401C97.1218 16.1401 97.9351 16.364 98.5908 16.8119C99.2528 17.2599 99.7415 17.8758 100.057 18.6596H100.208C100.555 17.8944 101.106 17.2847 101.863 16.8306C102.62 16.3702 103.521 16.1401 104.568 16.1401C105.885 16.1401 106.96 16.5475 107.793 17.3625C108.631 18.1775 109.05 19.4062 109.05 21.0486V30.6603H106.223V21.3099C106.223 20.3393 105.955 19.6364 105.419 19.2009C104.883 18.7654 104.243 18.5476 103.499 18.5476C102.579 18.5476 101.863 18.8276 101.352 19.3875C100.842 19.9412 100.586 20.6535 100.586 21.5245V30.6603H97.7681V21.1325C97.7681 20.3549 97.5222 19.7297 97.0304 19.2569C96.5386 18.7841 95.8987 18.5476 95.1106 18.5476C94.5747 18.5476 94.0798 18.6876 93.6258 18.9676C93.1782 19.2413 92.8157 19.6239 92.5382 20.1154C92.2671 20.6069 92.1316 21.1761 92.1316 21.8231V30.6603H89.3039Z" fill="white"/>
<path d="M113.107 30.6603V16.3267H115.934V30.6603H113.107ZM114.535 14.1151C114.043 14.1151 113.621 13.9533 113.268 13.6298C112.921 13.3001 112.747 12.9081 112.747 12.454C112.747 11.9936 112.921 11.6017 113.268 11.2782C113.621 10.9485 114.043 10.7836 114.535 10.7836C115.027 10.7836 115.446 10.9485 115.793 11.2782C116.146 11.6017 116.322 11.9936 116.322 12.454C116.322 12.9081 116.146 13.3001 115.793 13.6298C115.446 13.9533 115.027 14.1151 114.535 14.1151Z" fill="white"/>
<path d="M126.786 16.3267V18.5663H118.851V16.3267H126.786ZM120.979 12.8926H123.807V26.4517C123.807 26.9929 123.889 27.4004 124.053 27.6741C124.216 27.9416 124.428 28.1252 124.686 28.2247C124.951 28.318 125.238 28.3647 125.547 28.3647C125.774 28.3647 125.972 28.3491 126.143 28.318C126.313 28.2869 126.445 28.262 126.54 28.2434L127.05 30.5483C126.887 30.6105 126.653 30.6727 126.351 30.7349C126.048 30.8034 125.67 30.8407 125.216 30.8469C124.472 30.8594 123.778 30.7287 123.135 30.455C122.492 30.1813 121.972 29.7582 121.575 29.1859C121.178 28.6135 120.979 27.895 120.979 27.0302V12.8926Z" fill="white"/>
<path d="M133.32 11.5488V30.6603H130.492V11.5488H133.32Z" fill="white"/>
<path d="M143.651 30.9496C142.22 30.9496 140.987 30.6478 139.953 30.0444C138.925 29.4347 138.131 28.5793 137.57 27.4782C137.015 26.3708 136.738 25.0737 136.738 23.5868C136.738 22.1186 137.015 20.8246 137.57 19.7048C138.131 18.585 138.913 17.7109 139.915 17.0826C140.924 16.4542 142.103 16.1401 143.452 16.1401C144.272 16.1401 145.066 16.2738 145.835 16.5413C146.605 16.8088 147.295 17.2288 147.907 17.8011C148.518 18.3735 149 19.1169 149.353 20.0314C149.707 20.9397 149.883 22.044 149.883 23.3442V24.3333H138.336V22.243H147.112C147.112 21.5089 146.961 20.8588 146.658 20.2927C146.356 19.7203 145.93 19.2693 145.381 18.9396C144.839 18.6099 144.202 18.445 143.471 18.445C142.677 18.445 141.983 18.6379 141.391 19.0236C140.804 19.4031 140.35 19.9008 140.029 20.5167C139.713 21.1263 139.556 21.7889 139.556 22.5043V24.1374C139.556 25.0954 139.726 25.9104 140.067 26.5823C140.413 27.2542 140.896 27.7674 141.514 28.122C142.131 28.4704 142.853 28.6446 143.679 28.6446C144.215 28.6446 144.704 28.57 145.145 28.4207C145.586 28.2651 145.968 28.0349 146.289 27.7301C146.611 27.4253 146.857 27.0489 147.027 26.601L149.703 27.0769C149.489 27.8545 149.104 28.5358 148.55 29.1205C148.001 29.6991 147.311 30.1502 146.479 30.4737C145.653 30.7909 144.71 30.9496 143.651 30.9496Z" fill="white"/>
<path d="M164.172 19.8261L161.609 20.274C161.502 19.9505 161.332 19.6426 161.098 19.3502C160.871 19.0578 160.563 18.8183 160.172 18.6316C159.781 18.445 159.292 18.3517 158.706 18.3517C157.905 18.3517 157.237 18.529 156.701 18.8836C156.165 19.232 155.897 19.683 155.897 20.2367C155.897 20.7157 156.077 21.1014 156.436 21.3938C156.795 21.6862 157.375 21.9258 158.176 22.1124L160.484 22.635C161.82 22.9398 162.816 23.4095 163.472 24.0441C164.128 24.6786 164.456 25.5029 164.456 26.517C164.456 27.3755 164.204 28.1407 163.699 28.8126C163.201 29.4783 162.504 30.0008 161.609 30.3803C160.72 30.7598 159.689 30.9496 158.517 30.9496C156.89 30.9496 155.563 30.6074 154.535 29.9231C153.507 29.2325 152.877 28.2527 152.644 26.9836L155.377 26.573C155.547 27.276 155.897 27.8079 156.427 28.1687C156.956 28.5233 157.647 28.7006 158.498 28.7006C159.424 28.7006 160.165 28.5109 160.72 28.1314C161.275 27.7457 161.552 27.276 161.552 26.7223C161.552 26.2744 161.382 25.898 161.042 25.5931C160.708 25.2883 160.194 25.0581 159.5 24.9026L157.041 24.3707C155.686 24.0658 154.683 23.5806 154.034 22.9149C153.391 22.2493 153.069 21.4063 153.069 20.386C153.069 19.5399 153.309 18.7996 153.788 18.165C154.267 17.5305 154.929 17.0359 155.774 16.6813C156.619 16.3205 157.587 16.1401 158.677 16.1401C160.247 16.1401 161.483 16.476 162.385 17.1479C163.286 17.8136 163.882 18.7063 164.172 19.8261Z" fill="white"/>
<path d="M178.716 19.8261L176.153 20.274C176.046 19.9505 175.876 19.6426 175.643 19.3502C175.416 19.0578 175.107 18.8183 174.716 18.6316C174.325 18.445 173.836 18.3517 173.25 18.3517C172.449 18.3517 171.781 18.529 171.245 18.8836C170.709 19.232 170.441 19.683 170.441 20.2367C170.441 20.7157 170.621 21.1014 170.98 21.3938C171.34 21.6862 171.92 21.9258 172.72 22.1124L175.028 22.635C176.365 22.9398 177.361 23.4095 178.016 24.0441C178.672 24.6786 179 25.5029 179 26.517C179 27.3755 178.748 28.1407 178.243 28.8126C177.745 29.4783 177.049 30.0008 176.153 30.3803C175.264 30.7598 174.234 30.9496 173.061 30.9496C171.434 30.9496 170.107 30.6074 169.079 29.9231C168.052 29.2325 167.421 28.2527 167.188 26.9836L169.921 26.573C170.091 27.276 170.441 27.8079 170.971 28.1687C171.5 28.5233 172.191 28.7006 173.042 28.7006C173.969 28.7006 174.71 28.5109 175.264 28.1314C175.819 27.7457 176.097 27.276 176.097 26.7223C176.097 26.2744 175.926 25.898 175.586 25.5931C175.252 25.2883 174.738 25.0581 174.044 24.9026L171.586 24.3707C170.23 24.0658 169.228 23.5806 168.578 22.9149C167.935 22.2493 167.614 21.4063 167.614 20.386C167.614 19.5399 167.853 18.7996 168.332 18.165C168.811 17.5305 169.473 17.0359 170.318 16.6813C171.163 16.3205 172.131 16.1401 173.222 16.1401C174.792 16.1401 176.027 16.476 176.929 17.1479C177.83 17.8136 178.426 18.7063 178.716 19.8261Z" fill="white"/>
<path d="M28.5222 20.3229L29.6528 17.9572C30.2743 16.6562 30.9083 15.4461 31.0622 15.2687C31.2159 15.091 31.9036 13.7362 32.5902 12.2579C34.1345 8.93345 34.1731 8.88826 35.0474 9.33444C35.4142 9.52142 35.7718 9.76578 35.8423 9.8777C35.9639 10.0719 34.4912 13.3178 34.1745 13.5537C34.0911 13.6161 33.424 14.92 32.6914 16.4515C31.9587 17.9833 31.2859 19.2879 31.1963 19.35C31.0576 19.4463 29.4224 22.7214 29.4224 22.9027C29.423 22.9369 29.7902 22.8806 30.2391 22.778C30.6888 22.6752 33.4596 22.0537 36.3964 21.3969C39.3327 20.7405 42.2745 20.023 42.9342 19.8025C44.3837 19.3179 46.6047 18.8202 46.7376 18.9502C46.7903 19.0023 46.9249 19.444 47.036 19.9321L47.2376 20.8197L45.1407 21.2888C43.9873 21.5469 42.5534 21.8857 41.9539 22.0421L40.864 22.3262L41.8451 22.3345C42.3856 22.3389 46.3155 22.0812 50.5795 21.7621L58.3344 21.1821L58.5492 22.0961C58.753 22.9629 58.7389 23.0108 58.2761 23.0108C58.0076 23.0108 57.3146 23.1089 56.7361 23.229C55.9825 23.3856 33.643 25.114 31.6956 25.1665C31.3733 25.1753 34.7149 26.7883 37.9216 28.1717C39.5399 28.8698 41.6112 29.8148 42.5241 30.272L44.1835 31.1035L43.3591 32.6896L42.5473 32.3397C39.4767 31.0173 38.2697 30.4881 37.6988 30.272C37.2795 30.1132 37.3118 30.0909 36.8318 29.8687C36.1711 29.5628 35.4753 29.2046 34.3058 28.6367C31.6387 27.5902 29.5502 26.6528 29.2118 26.3507C29.0089 26.1695 28.7767 26.0216 28.6963 26.0216C28.616 26.0265 28.5503 28.1384 28.5503 30.7189C28.5503 33.3028 28.5503 36.27 28.5503 37.6616V40H26.3712V25.5912L25.3354 25.6009C24.0427 25.6131 11.4335 26.3506 5.44868 26.7644C2.9914 26.9343 0.759756 27.079 0.490163 27.0852C0.0485182 27.0957 9.39523e-06 26.9948 0 26.0652V25.0334L10.1888 24.5525C15.7927 24.288 20.7055 24.0204 21.1058 23.958L21.8333 23.8444L20.9963 23.4196C20.5355 23.1859 18.7617 22.5551 17.0539 22.0178C15.3458 21.4804 13.9486 20.9872 13.9486 20.9216C13.9488 20.8554 14.0641 20.4222 14.2049 19.9577C14.4915 19.0143 14.6718 18.9985 16.4472 19.7665C17.7035 20.3101 18.246 20.4931 21.9029 21.6021C23.7009 22.1474 25.4348 22.7268 25.7553 22.8902C26.0756 23.0533 26.3941 23.1309 26.4632 23.0627C26.5323 22.9911 26.5889 17.7755 26.5889 11.4694V0H28.8136L28.5222 20.3229Z" fill="white"/>
</svg>
