<svg width="171" height="40" viewBox="0 0 171 40" fill="none" xmlns="http://www.w3.org/2000/svg">
<path fill-rule="evenodd" clip-rule="evenodd" d="M5.17881 32.2718H27.6018C28.9361 32.2718 29.9492 30.6907 29.1818 29.5435L17.9855 10.0944C17.169 8.68689 15.6154 7.73218 13.8388 7.73218C11.979 7.73218 10.3423 8.8001 9.55227 10.3775L1.03593 25.1246C-0.702869 28.2114 1.66341 32.2718 5.17881 32.2718Z" fill="white"/>
<path fill-rule="evenodd" clip-rule="evenodd" d="M22.8315 14.9057C21.5047 12.6265 22.2947 9.69816 24.5816 8.37741C26.8648 7.05288 29.798 7.84156 31.1248 10.1208L39.7848 25.0944C41.1116 27.3736 40.3216 30.3019 38.0347 31.6227C35.7515 32.9472 32.8183 32.1585 31.4915 29.8793L22.8315 14.9057Z" fill="white"/>
<path d="M155.793 13.9624C157.101 12.7435 159.395 12.1661 162.737 12.1661H170.55V7.73218H161.312C159.104 7.73218 157.244 7.96237 155.793 8.42652C154.372 8.89067 153.12 9.61519 152.047 10.6303C150.913 11.7322 150.013 13.0944 149.374 14.7171C148.736 16.3699 148.414 18.1661 148.414 20.0492C148.414 21.8454 148.736 23.585 149.374 25.1812C150.013 26.7737 150.913 28.1661 152.047 29.268C153.094 30.2831 154.341 31.0076 155.736 31.4718C157.157 31.9359 159.047 32.1661 161.312 32.1661H170.55V27.7888H162.737C160.964 27.7888 159.743 27.7322 159.047 27.585C158.322 27.4416 157.653 27.2076 157.101 26.8605C155.997 26.1661 155.154 25.268 154.602 24.1359C154.077 23.0341 153.816 21.6416 153.816 20.019C153.82 17.2378 154.489 15.1775 155.793 13.9624Z" fill="white"/>
<path d="M87.7944 32.2228H109.579V27.9322H93.1091V21.8153H107.488V17.7587H93.1091V12.0756H109.579V7.75488H87.7944V32.2228Z" fill="white"/>
<path d="M115.014 7.75854L125.209 19.9925L115.014 32.2265H121.606L129.654 22.5434V17.4718L121.606 7.76232H115.014V7.75854Z" fill="white"/>
<path d="M139.762 7.75865L131.718 17.4681V22.5398L139.762 32.2228H146.354L136.129 19.9888L146.354 7.75488H139.762V7.75865Z" fill="white"/>
<path d="M66.4451 19.8153L56.6549 7.75865H51.6011V32.2228H56.9158V15.9021L65.3981 26.0454H67.462L75.9443 15.8115V32.219H81.259V7.75488H76.2618L66.4451 19.8153Z" fill="white"/>
</svg>
