<svg width="168" height="40" viewBox="0 0 168 40" fill="none" xmlns="http://www.w3.org/2000/svg">
<g clip-path="url(#clip0_496_2503)">
<mask id="mask0_496_2503" style="mask-type:luminance" maskUnits="userSpaceOnUse" x="0" y="8" width="169" height="25">
<path d="M168.314 8H0.428223V32.2143H168.314V8Z" fill="white"/>
</mask>
<g mask="url(#mask0_496_2503)">
<path d="M28.6393 27.0915L24.0342 31.8839C23.9346 31.988 23.814 32.0711 23.6798 32.1279C23.5457 32.1848 23.4009 32.2142 23.2545 32.2144H1.42422C1.3201 32.2143 1.21826 32.1848 1.13116 32.1294C1.04407 32.074 0.975499 31.9952 0.933852 31.9026C0.892206 31.81 0.879289 31.7076 0.896686 31.608C0.914083 31.5083 0.961033 31.4158 1.03179 31.3416L5.63175 26.5492C5.73137 26.4452 5.85198 26.3621 5.98613 26.3052C6.12026 26.2484 6.26504 26.219 6.41141 26.2188H28.2417C28.3467 26.2167 28.4501 26.2448 28.5388 26.2996C28.6274 26.3544 28.6976 26.4334 28.7399 26.5267C28.7825 26.62 28.7955 26.7234 28.7776 26.8239C28.7597 26.9244 28.7116 27.0175 28.6393 27.0915ZM24.0342 17.4386C23.9342 17.335 23.8135 17.2523 23.6794 17.1954C23.5454 17.1386 23.4008 17.1089 23.2545 17.1082H1.42422C1.3201 17.1083 1.21826 17.1378 1.13116 17.1932C1.04407 17.2485 0.975499 17.3274 0.933852 17.42C0.892206 17.5126 0.879289 17.615 0.896686 17.7146C0.914083 17.8142 0.961033 17.9068 1.03179 17.9809L5.63175 22.7759C5.73173 22.8795 5.85245 22.9622 5.9865 23.019C6.12054 23.0758 6.26514 23.1055 6.41141 23.1063H28.2417C28.3457 23.1057 28.447 23.0758 28.5338 23.0203C28.6206 22.9647 28.6887 22.8859 28.73 22.7934C28.7714 22.7008 28.7841 22.5986 28.7664 22.4992C28.749 22.3998 28.7022 22.3075 28.6315 22.2336L24.0342 17.4386ZM1.42422 13.9956H23.2545C23.4009 13.9955 23.5457 13.9661 23.6798 13.9092C23.814 13.8524 23.9346 13.7693 24.0342 13.6652L28.6393 8.87283C28.7116 8.79881 28.7597 8.70568 28.7776 8.60517C28.7955 8.50466 28.7825 8.40125 28.7399 8.30796C28.6976 8.21467 28.6274 8.13566 28.5388 8.08089C28.4501 8.02611 28.3467 7.998 28.2417 8.00011H6.41141C6.26504 8.00026 6.12026 8.02968 5.98613 8.08653C5.85198 8.14338 5.73137 8.22644 5.63175 8.33053L1.03179 13.1229C0.961033 13.1971 0.914083 13.2896 0.896686 13.3893C0.879289 13.4889 0.892206 13.5913 0.933852 13.6839C0.975499 13.7765 1.04407 13.8553 1.13116 13.9107C1.21826 13.9661 1.3201 13.9956 1.42422 13.9956Z" fill="white"/>
<path d="M55.2557 18.2408H43.5765V14.5077H58.2912V10.7747H43.5375C43.0333 10.7721 42.5338 10.8658 42.0671 11.0506C41.6003 11.2353 41.1754 11.5075 40.8173 11.8516C40.4589 12.1957 40.1738 12.6049 39.9784 13.0558C39.783 13.5068 39.6808 13.9908 39.6782 14.48V18.2635C39.6803 18.7531 39.7817 19.2376 39.9768 19.6892C40.172 20.1407 40.4568 20.5505 40.8152 20.8951C41.1739 21.2398 41.5988 21.5124 42.0658 21.6975C42.5328 21.8826 43.0331 21.9765 43.5375 21.9738H55.2323V25.7068H39.9563V29.4399H55.2557C55.7599 29.4425 56.2594 29.3488 56.7261 29.164C57.1929 28.9792 57.6178 28.7071 57.9759 28.363C58.3343 28.0189 58.6194 27.6097 58.8148 27.1587C59.0103 26.7077 59.1124 26.2238 59.115 25.7346V21.9511C59.1129 21.4614 59.0116 20.977 58.8164 20.5254C58.6212 20.0738 58.3364 19.664 57.978 19.3194C57.6194 18.9748 57.1945 18.7022 56.7274 18.5171C56.2604 18.332 55.7601 18.2381 55.2557 18.2408Z" fill="white"/>
<path d="M77.8807 10.7748H66.1573C65.6523 10.7708 65.1515 10.8635 64.6835 11.0477C64.2157 11.2319 63.7897 11.5039 63.4303 11.8481C63.0706 12.1923 62.7848 12.6019 62.5888 13.0536C62.3926 13.5052 62.2902 13.99 62.2876 14.4801V25.7347C62.2902 26.2247 62.3926 26.7095 62.5888 27.1611C62.7848 27.6128 63.0706 28.0224 63.4303 28.3666C63.7897 28.7109 64.2157 28.9828 64.6835 29.167C65.1515 29.3512 65.6523 29.4439 66.1573 29.4399H77.8807C78.3849 29.4426 78.8843 29.3489 79.3511 29.1641C79.8179 28.9793 80.2428 28.7071 80.6009 28.3631C80.9593 28.019 81.2444 27.6098 81.4398 27.1588C81.6352 26.7078 81.7374 26.2239 81.74 25.7347V14.4801C81.7374 13.9908 81.6352 13.5069 81.4398 13.0559C81.2444 12.605 80.9593 12.1957 80.6009 11.8517C80.2428 11.5076 79.8179 11.2354 79.3511 11.0506C78.8843 10.8659 78.3849 10.7721 77.8807 10.7748ZM77.8521 25.7069H66.1859V14.5078H77.8469L77.8521 25.7069Z" fill="white"/>
<path d="M118.941 10.7749H107.506C107.002 10.7723 106.503 10.866 106.036 11.0508C105.569 11.2356 105.144 11.5077 104.786 11.8518C104.428 12.1959 104.143 12.6051 103.947 13.0561C103.752 13.5071 103.65 13.991 103.647 14.4802V29.4401H107.545V23.3083H118.928V29.4401H122.826V14.4802C122.824 13.9888 122.721 13.5028 122.524 13.0502C122.327 12.5976 122.04 12.1872 121.678 11.8428C121.317 11.4984 120.89 11.2268 120.42 11.0435C119.95 10.8602 119.447 10.769 118.941 10.7749ZM118.913 19.5753H107.53V14.508H118.913V19.5753Z" fill="white"/>
<path d="M164.457 10.7747H153.022C152.518 10.7721 152.018 10.8658 151.551 11.0506C151.085 11.2353 150.66 11.5075 150.302 11.8516C149.943 12.1957 149.658 12.6049 149.463 13.0558C149.267 13.5068 149.165 13.9908 149.163 14.48V29.4399H153.061V23.3081H164.418V29.4399H168.316V14.48C168.313 13.9908 168.211 13.5068 168.016 13.0558C167.82 12.6049 167.535 12.1957 167.177 11.8516C166.819 11.5075 166.394 11.2353 165.927 11.0506C165.46 10.8658 164.961 10.7721 164.457 10.7747ZM164.418 19.5751H153.035V14.5077H164.418V19.5751Z" fill="white"/>
<path d="M141.81 25.7068H140.251L134.677 12.3385C134.486 11.8773 134.157 11.482 133.733 11.2034C133.309 10.9248 132.808 10.7755 132.296 10.7747H128.837C128.501 10.773 128.168 10.8357 127.856 10.959C127.545 11.0823 127.262 11.2639 127.023 11.4935C126.784 11.723 126.594 11.9959 126.464 12.2968C126.334 12.5975 126.266 12.9203 126.264 13.2466V29.4398H130.162V14.5077H131.722L137.294 27.876C137.488 28.3363 137.819 28.73 138.245 29.0067C138.671 29.2835 139.172 29.4308 139.685 29.4298H143.144C143.48 29.4314 143.813 29.3688 144.124 29.2455C144.436 29.1222 144.719 28.9405 144.958 28.711C145.196 28.4815 145.386 28.2085 145.517 27.9077C145.647 27.6069 145.715 27.2842 145.717 26.9579V10.7747H141.81V25.7068Z" fill="white"/>
<path d="M89.0765 10.7747H85.1782V25.7345C85.1808 26.2248 85.2835 26.7098 85.4797 27.1616C85.6759 27.6134 85.962 28.0232 86.3217 28.3674C86.6814 28.7117 87.1079 28.9836 87.5759 29.1676C88.0442 29.3516 88.5453 29.4441 89.0505 29.4398H100.745V25.7068H89.0765V10.7747Z" fill="white"/>
</g>
</g>
<defs>
<clipPath id="clip0_496_2503">
<rect width="168" height="40" fill="white"/>
</clipPath>
</defs>
</svg>
