<svg width="145" height="24" viewBox="0 0 145 24" fill="none" xmlns="http://www.w3.org/2000/svg">
<path d="M144.524 5.98706V7.53421H134.214V11.344H143.943V12.8926H134.214V17.1763H145V18.7249H132.469V5.98706H144.523H144.524Z" fill="#A5A5A5"/>
<path d="M122.596 5.70288C126.068 5.70288 128.741 7.39872 129.687 9.99693L128.202 10.7712C127.404 8.61465 125.363 7.28831 122.615 7.28831C119.143 7.28831 116.452 9.24323 116.452 12.3567C116.452 15.4701 119.143 17.425 122.615 17.425C125.363 17.425 127.404 16.0987 128.202 13.9421L129.687 14.7164C128.741 17.3146 126.068 19.0105 122.596 19.0105C118.158 19.0105 114.65 16.318 114.65 12.3567C114.65 8.39531 118.158 5.70288 122.596 5.70288Z" fill="#A5A5A5"/>
<path d="M111.775 18.7249H110.197L99.4528 8.14365V18.7249H97.7441V5.98706H99.6382L110.068 16.2003V5.98706H111.776L111.775 18.7249Z" fill="#A5A5A5"/>
<path d="M85.6548 5.98706H87.8084L95.2539 18.7249H93.1745L91.0387 15.2935H82.331L80.2145 18.7249H78.2285L85.6548 5.98706ZM90.1666 13.7449L87.9938 9.93075C87.5488 9.15644 87.1217 8.19812 86.6752 7.42528C86.2303 8.19959 85.7838 9.15791 85.3567 9.93075L83.2031 13.7449H90.1651H90.1666Z" fill="#A5A5A5"/>
<path d="M75.7808 18.7249H73.998V5.98706H75.7808V18.7249Z" fill="#A5A5A5"/>
<path d="M59.2031 5.98706H60.9859V17.1763H71.1041V18.7249H59.2031V5.98706Z" fill="#A5A5A5"/>
<path d="M44.4102 5.98706H46.1929V17.1763H56.3112V18.7249H44.4102V5.98706Z" fill="#A5A5A5"/>
<path d="M32.2642 5.98706H34.4177L41.8633 18.7249H39.7839L37.6481 15.2935H28.9404L26.8239 18.7249H24.8379L32.2642 5.98706ZM36.776 13.7449L34.6031 9.93075C34.1582 9.15644 33.731 8.19812 33.2846 7.42528C32.8396 8.19959 32.3932 9.15791 31.966 9.93075L29.8125 13.7449H36.7745H36.776Z" fill="#A5A5A5"/>
<path d="M10.0159 4.25H9.47454C8.36513 10.5446 4.89597 16.031 0 19.7804L0.271422 20.25C3.19922 19.0753 6.39398 18.4232 9.74597 18.4232C13.098 18.4232 16.2927 19.0753 19.2205 20.25L19.4919 19.7804C14.596 16.031 11.1253 10.5446 10.0159 4.25Z" fill="#A5A5A5"/>
</svg>
