<svg width="288" height="24" viewBox="0 0 288 24" fill="none" xmlns="http://www.w3.org/2000/svg">
<path fill-rule="evenodd" clip-rule="evenodd" d="M6.85301 2.53247C5.06284 2.69404 3.41639 3.46754 2.14072 4.74631C0.377559 6.51376 -0.364579 9.03058 0.170618 11.4277C0.82345 14.3517 3.24881 16.6292 6.24919 17.1357C7.13151 17.2846 8.17979 17.2669 9.1004 17.0874C9.72477 16.9657 10.1893 16.8088 10.7689 16.5238C11.4538 16.187 11.9515 15.8238 12.5396 15.2318C13.1569 14.6104 13.5253 14.0544 13.8345 13.2777C14.2063 12.3437 14.3623 11.4162 14.3376 10.2868C14.3266 9.78041 14.3134 9.60714 14.2642 9.32255L14.2514 9.24879H10.8587H7.46594V10.2588V11.2688H9.86088C12.1267 11.2688 12.2558 11.2709 12.2558 11.3085C12.2556 11.3888 12.1828 11.7615 12.1186 12.0104C11.9257 12.7584 11.5853 13.356 11.0762 13.8403C10.4426 14.4432 9.73914 14.8363 8.94043 15.0339C8.53408 15.1344 8.31411 15.1678 7.85455 15.1988C6.27228 15.3055 4.78149 14.7373 3.69645 13.614C2.90596 12.7957 2.43733 11.8282 2.25261 10.6333C2.1967 10.2715 2.19647 9.47684 2.25222 9.11261C2.33701 8.55843 2.49035 8.03997 2.70533 7.58059C3.48665 5.91099 5.01118 4.80335 6.84757 4.571C7.17039 4.53017 7.85063 4.53644 8.20372 4.58351C9.16449 4.71161 10.0832 5.11404 10.8002 5.72086C10.9173 5.81997 11.033 5.91555 11.0573 5.9333C11.0985 5.96339 11.1479 5.91909 11.8035 5.26388C12.1896 4.87797 12.5048 4.55194 12.5039 4.53939C12.503 4.52684 12.4136 4.438 12.3052 4.34197C11.1556 3.32303 9.88356 2.74282 8.40657 2.56363C8.05024 2.52041 7.18009 2.50296 6.85301 2.53247ZM45.9667 9.99778V16.9429H46.9882H48.0097V9.99778V3.05263H46.9882H45.9667V9.99778ZM19.3839 7.77664C18.8564 7.83078 18.2102 8.01646 17.7383 8.24946C16.5135 8.85432 15.6298 9.94714 15.2977 11.2677C15.1881 11.7034 15.1528 12.0023 15.1528 12.4944C15.1528 13.1207 15.2256 13.5594 15.4238 14.1288C15.6457 14.7663 15.9754 15.2984 16.4551 15.7935C16.8547 16.206 17.2508 16.4956 17.7562 16.7448C19.1041 17.4092 20.7781 17.3987 22.1166 16.7173C22.5794 16.4818 22.9772 16.1855 23.357 15.7935C24.0466 15.0817 24.463 14.2258 24.6195 13.198C24.6737 12.8421 24.6738 12.1482 24.6198 11.7908C24.4441 10.6296 23.9074 9.63136 23.073 8.91401C22.0615 8.04442 20.7412 7.63738 19.3839 7.77664ZM29.7469 7.76636C28.4104 7.88298 27.2209 8.50913 26.4132 9.52115C25.8624 10.2113 25.5089 11.1035 25.424 12.0178C25.2249 14.1625 26.3707 16.0893 28.3174 16.8832C29.4245 17.3348 30.7576 17.3528 31.8808 16.9316C33.6376 16.2726 34.8131 14.6666 34.9075 12.7962C34.9825 11.3126 34.5018 10.0453 33.4958 9.07432C32.726 8.3313 31.7493 7.88568 30.6468 7.77451C30.4279 7.75245 29.9555 7.74816 29.7469 7.76636ZM39.6785 7.78506C38.6603 7.92469 37.7463 8.39776 37.0021 9.17028C36.3278 9.87024 35.8981 10.7193 35.716 11.7114C35.6591 12.0216 35.6465 12.7754 35.6924 13.1241C35.9714 15.2439 37.6275 16.9332 39.692 17.2037C40.782 17.3466 41.8538 17.0172 42.5468 16.3263C42.6324 16.241 42.7182 16.1712 42.7374 16.1712C42.7684 16.1712 42.7709 16.2351 42.7591 16.7216C42.7517 17.0316 42.7309 17.3662 42.7116 17.4876C42.52 18.6941 41.8194 19.4171 40.6894 19.5742C40.4404 19.6088 40.0349 19.6041 39.8041 19.5639C39.3012 19.4762 38.8742 19.25 38.4981 18.8719C38.2605 18.6332 38.1375 18.4657 37.9755 18.1603L37.8503 17.9241L36.9483 18.2996C36.3865 18.5335 36.0464 18.6867 36.0464 18.706C36.0464 18.7229 36.0934 18.8304 36.1508 18.9447C36.6162 19.8713 37.3718 20.6197 38.276 21.0498C38.8927 21.3433 39.528 21.4822 40.2526 21.4822C41.8768 21.4822 43.1887 20.8376 43.9541 19.6635C44.3093 19.1188 44.5444 18.4648 44.6772 17.6524L44.7283 17.3401L44.7351 12.693L44.7419 8.04587H43.7538H42.7658V8.43171C42.7658 8.73029 42.7593 8.81755 42.7368 8.81755C42.7208 8.81755 42.6467 8.75505 42.5722 8.67863C41.8967 7.98606 40.7638 7.63622 39.6785 7.78506ZM52.9131 7.76654C50.5307 8.02045 48.8722 9.96024 48.8724 12.4927C48.8726 14.992 50.6372 16.9668 53.0915 17.2143C54.7754 17.3841 56.3737 16.6818 57.3968 15.3227C57.4653 15.2317 57.5211 15.1479 57.5208 15.1365C57.5201 15.1105 55.9588 14.0718 55.9204 14.0718C55.9048 14.0718 55.8427 14.1382 55.7823 14.2193C55.6339 14.4187 55.2962 14.7539 55.1126 14.8841C54.7984 15.1069 54.4107 15.2634 54.0312 15.3205C53.069 15.4655 52.1941 15.1604 51.6593 14.4933C51.519 14.3183 51.346 14.0558 51.3129 13.9677C51.3019 13.9384 51.8762 13.693 54.4388 12.6324C56.1654 11.9177 57.5872 11.3244 57.5982 11.3138C57.6229 11.29 57.3825 10.6779 57.2017 10.3042C57.0562 10.0032 56.7866 9.57893 56.5745 9.31688C56.395 9.09511 55.9889 8.70271 55.7734 8.54286C55.0494 8.00563 54.2339 7.7441 53.3149 7.75445C53.1376 7.75644 52.9568 7.76189 52.9131 7.76654ZM53.6623 9.6118C54.1331 9.66595 54.5277 9.83298 54.8167 10.1005C54.9501 10.224 55.1276 10.4699 55.1417 10.551C55.1481 10.5874 54.8514 10.7171 53.0513 11.4646C51.8975 11.9437 50.9488 12.3311 50.9432 12.3254C50.9375 12.3197 50.9445 12.1838 50.9587 12.0233C51.0227 11.2989 51.2864 10.7418 51.7854 10.2768C52.2181 9.87353 52.8332 9.61109 53.3899 9.5923C53.4336 9.59083 53.5561 9.59959 53.6623 9.6118ZM20.3287 9.66926C21.48 9.86702 22.3381 10.7698 22.5285 11.9834C22.5762 12.2878 22.5644 12.8849 22.5053 13.1526C22.2912 14.123 21.6725 14.8652 20.8066 15.1904C20.522 15.2972 20.3497 15.3314 20.0175 15.347C18.7126 15.4081 17.607 14.5131 17.3068 13.1526C17.2477 12.8849 17.2359 12.2878 17.2836 11.9834C17.4722 10.7807 18.327 9.87394 19.4634 9.67113C19.7067 9.62769 20.082 9.62689 20.3287 9.66926ZM30.7814 9.70998C31.4882 9.89271 32.0432 10.311 32.4176 10.9431C32.8297 11.6386 32.9357 12.5625 32.6986 13.3909C32.628 13.6377 32.4078 14.0893 32.2669 14.2761C32.0121 14.6141 31.6426 14.924 31.2925 15.0934C30.8904 15.2879 30.4933 15.3681 30.0328 15.3478C29.0893 15.3063 28.2522 14.7482 27.8122 13.8674C27.3295 12.9014 27.4125 11.6248 28.0135 10.7692C28.4242 10.1846 29.0172 9.80347 29.7242 9.66988C29.9983 9.61808 30.4995 9.63708 30.7814 9.70998ZM40.9611 9.70288C42.1803 10.0289 42.9476 11.1905 42.8948 12.6306C42.8652 13.4388 42.6141 14.0829 42.1303 14.5914C41.9158 14.8169 41.7281 14.9598 41.4765 15.0891C41.0848 15.2904 40.7151 15.3689 40.2594 15.3477C39.1894 15.2978 38.2578 14.5627 37.9092 13.493C37.801 13.1613 37.7646 12.9125 37.7646 12.5057C37.7646 11.9695 37.8403 11.6186 38.0541 11.1647C38.4265 10.3737 39.1407 9.81341 39.9614 9.66836C40.2236 9.62201 40.7232 9.63926 40.9611 9.70288Z" fill="#AAAAAA"/>
<g clip-path="url(#clip0_502_40)">
<path d="M83.9984 13.4171C83.9984 14.2938 84.1845 14.9669 84.4277 15.3741C84.7466 15.9074 85.2223 16.1334 85.7072 16.1334C86.3326 16.1334 86.9048 15.9729 88.0074 14.396C88.8908 13.1321 89.9316 11.358 90.632 10.2458L91.818 8.36147C92.6419 7.05284 93.5955 5.5981 94.6888 4.61204C95.5815 3.80723 96.5443 3.36011 97.5134 3.36011C99.1403 3.36011 100.69 4.33499 101.876 6.16339C103.174 8.16585 103.804 10.6881 103.804 13.291C103.804 14.8383 103.509 15.9753 103.007 16.8735C102.522 17.7422 101.577 18.6101 99.9874 18.6101V16.1334C101.349 16.1334 101.688 14.8399 101.688 13.3596C101.688 11.2502 101.213 8.90919 100.165 7.23648C99.4214 6.05002 98.4577 5.32504 97.3976 5.32504C96.2509 5.32504 95.3282 6.21928 94.2912 7.81375C93.7399 8.66088 93.1739 9.69325 92.5384 10.8582L91.8388 12.1396C90.4335 14.7162 90.0776 15.303 89.3749 16.2715C88.1433 17.9674 87.0916 18.6101 85.7072 18.6101C84.0648 18.6101 83.0263 17.8748 82.3831 16.7665C81.858 15.8635 81.6001 14.6786 81.6001 13.3285L83.9984 13.4171Z" fill="#AAAAAA"/>
<path d="M83.4907 6.33849C84.5903 4.58594 86.177 3.36035 87.997 3.36035C89.051 3.36035 90.0988 3.68292 91.1929 4.6067C92.3898 5.61671 93.6654 7.27984 95.2568 10.0208L95.8274 11.0045C97.2049 13.3774 97.9886 14.5982 98.4473 15.1739C99.0372 15.9133 99.4503 16.1336 99.987 16.1336C101.348 16.1336 101.688 14.8402 101.688 13.3599L103.804 13.2912C103.804 14.8386 103.509 15.9755 103.007 16.8738C102.522 17.7425 101.577 18.6104 99.987 18.6104C98.9986 18.6104 98.123 18.3884 97.1547 17.4438C96.4104 16.7189 95.5402 15.431 94.8707 14.2733L92.8793 10.8337C91.8802 9.10745 90.9636 7.82038 90.4331 7.23752C89.8625 6.61076 89.129 5.85385 87.9584 5.85385C87.011 5.85385 86.2064 6.54129 85.5331 7.59283L83.4907 6.33849Z" fill="#AAAAAA"/>
<path d="M87.9588 5.8536C87.0113 5.8536 86.2068 6.54105 85.5334 7.59258C84.5814 9.07846 83.9984 11.2917 83.9984 13.4171C83.9984 14.2938 84.1845 14.9669 84.4277 15.3741L82.3831 16.7665C81.858 15.8635 81.6001 14.6786 81.6001 13.3285C81.6001 10.8733 82.2518 8.31436 83.4911 6.33825C84.5906 4.5857 86.1774 3.36011 87.9974 3.36011L87.9588 5.8536Z" fill="#AAAAAA"/>
<path d="M108.467 3.84302H111.242L115.959 12.6673L120.677 3.84302H123.391V18.3425H121.127V7.22995L116.99 14.9252H114.867L110.73 7.22995V18.3425H108.467V3.84302ZM130.482 9.24918C128.859 9.24918 127.882 10.5123 127.648 12.0764H133.156C133.043 10.4652 132.144 9.24918 130.482 9.24918ZM125.404 12.9675C125.404 9.67634 127.461 7.28105 130.521 7.28105C133.532 7.28105 135.33 9.646 135.33 13.1431V13.7859H127.648C127.92 15.4873 129.012 16.6339 130.772 16.6339C132.177 16.6339 133.055 16.1907 133.887 15.3803L135.09 16.9029C133.957 17.98 132.516 18.6012 130.692 18.6012C127.379 18.6012 125.404 16.1029 125.404 12.9675ZM138.074 9.45677H135.991V7.54054H138.074V4.37158H140.258V7.54054H143.423V9.45677H140.258V14.3136C140.258 15.972 140.77 16.5612 142.03 16.5612C142.606 16.5612 142.935 16.5101 143.423 16.4263V18.3217C142.816 18.499 142.237 18.5804 141.61 18.5804C139.252 18.5804 138.074 17.2486 138.074 14.5827V9.45677ZM152.617 11.3203C152.179 10.1754 151.2 9.33222 149.763 9.33222C147.894 9.33222 146.698 10.7031 146.698 12.9363C146.698 15.1136 147.799 16.5508 149.673 16.5508C151.146 16.5508 152.198 15.6646 152.617 14.5619V11.3203ZM154.801 18.3425H152.658V16.8303C152.058 17.7205 150.968 18.6012 149.202 18.6012C146.362 18.6012 144.464 16.1428 144.464 12.9363C144.464 9.6995 146.408 7.28105 149.323 7.28105C150.763 7.28105 151.894 7.87668 152.658 8.92821V7.54054H154.801V18.3425Z" fill="#AAAAAA"/>
</g>
<path d="M178.8 0H202.8V24H178.8V0Z" fill="#AAAAAA" fill-opacity="0.960784"/>
<path d="M190.002 13.6005L185.843 5.84058H187.763L190.163 10.7207C190.163 10.8008 190.243 10.881 190.323 10.9611C190.403 11.0412 190.403 11.1213 190.484 11.2806L190.564 11.3608V11.4409C190.644 11.6011 190.644 11.6813 190.724 11.8415C190.804 11.9217 190.804 12.0819 190.884 12.1611C190.964 11.9207 191.125 11.7604 191.204 11.4409C191.284 11.2005 191.444 10.9611 191.604 10.7207L194.004 5.84058H195.764L191.605 13.6816V18.6418H190.006L190.002 13.6005Z" fill="#141414"/>
<path d="M215.121 6.90084C216.199 6.90084 217.135 7.18866 217.855 7.76532L217.136 8.62979C216.488 8.19857 215.841 7.91075 215.051 7.91075C213.827 7.91075 212.892 8.5586 212.389 9.78209C212.101 10.5011 211.958 11.4368 211.958 12.6603C211.958 13.596 212.1 14.3872 212.318 14.9629C212.893 16.3298 213.829 16.9766 215.267 16.9766C216.058 16.9766 216.779 16.761 217.425 16.2575L218.144 17.1932C217.209 17.7689 216.212 18.0577 215.124 18.0577C213.829 18.0577 212.75 17.5543 211.887 16.4752C211.022 15.4582 210.663 14.1014 210.663 12.4477C210.663 10.794 211.094 9.49834 211.958 8.42029C212.749 7.48461 213.829 6.90897 215.124 6.90897L215.121 6.90084ZM219.221 14.0231C219.221 12.7284 219.509 11.7206 220.157 11.0025C220.805 10.2845 221.596 9.85125 222.603 9.85125C223.754 9.85125 224.688 10.2825 225.337 11.2181C225.84 11.9372 226.056 12.9451 226.056 14.1675C226.056 15.6066 225.625 16.7579 224.832 17.477C224.237 18.0003 223.467 18.2825 222.674 18.2682C221.596 18.2682 220.803 17.9082 220.156 17.1169C219.508 16.3979 219.221 15.3188 219.221 14.0231ZM224.258 11.9382C223.898 11.2904 223.393 10.9212 222.603 10.9212C221.813 10.9212 221.308 11.209 220.948 11.7856C220.661 12.2169 220.588 12.9369 220.588 13.8706C220.588 15.0941 220.731 15.9555 221.092 16.461C221.453 16.9664 221.956 17.2522 222.674 17.2522C223.539 17.2522 224.113 16.821 224.401 16.0287C224.544 15.5975 224.617 15.0117 224.617 14.3018C224.688 13.2237 224.546 12.4304 224.257 11.928L224.258 11.9382ZM228.357 12.0806C228.357 11.2893 228.285 10.6415 228.069 10.1482L229.292 9.8604C229.508 10.2204 229.58 10.6517 229.58 11.0117V11.0829C229.868 10.7951 230.156 10.5072 230.597 10.2916C231.1 10.0038 231.533 9.8604 231.964 9.8604C232.612 9.8604 233.187 10.1482 233.546 10.6517C233.618 10.794 233.762 11.0117 233.834 11.1551C234.699 10.2906 235.489 9.8604 236.352 9.8604C236.928 9.8604 237.431 10.076 237.792 10.436C238.152 10.8673 238.367 11.3717 238.367 11.9474V17.9173H237.053V12.0186C237.053 11.2273 236.693 10.8673 236.036 10.8673C235.676 10.8673 235.245 11.0097 234.885 11.2985C234.743 11.4409 234.454 11.6585 234.094 11.9463L233.951 12.0887V17.9163H232.584V12.2962C232.584 11.7928 232.513 11.4317 232.369 11.2792C232.153 11.0636 231.938 10.9913 231.577 10.9913C231.002 10.9913 230.354 11.3514 229.564 12.0694V17.9682H228.358L228.357 12.0806ZM240.588 6.61302L241.883 6.3252C242.026 6.90084 242.099 7.54869 242.099 8.33892V11.0005C242.818 10.2815 243.61 9.92244 244.401 9.92244C245.337 9.92244 246.128 10.2825 246.632 11.0005C247.207 11.7195 247.496 12.7274 247.496 13.9499C247.496 15.2446 247.208 16.2525 246.632 17.0437C246.055 17.835 245.265 18.195 244.329 18.195C243.904 18.203 243.483 18.104 243.106 17.9072C242.674 17.6916 242.387 17.476 242.17 17.1881L241.954 18.0526H240.731C240.873 17.6926 240.946 17.0356 240.946 16.0389V8.48232C240.875 7.61785 240.804 6.97101 240.586 6.61098L240.588 6.61302ZM242.673 11.4948C242.458 11.6372 242.242 11.8548 242.098 12.0704V16.1914C242.601 16.8393 243.249 17.1271 244.03 17.1271C244.678 17.1271 245.181 16.9115 245.469 16.4081C245.829 15.8324 246.045 15.0412 246.045 13.8899C246.045 12.8729 245.902 12.163 245.541 11.7317C245.254 11.3005 244.75 11.0839 244.03 11.0839C243.599 11.0127 243.094 11.1551 242.663 11.5151L242.673 11.4948ZM249.366 7.63005C249.366 7.34223 249.437 7.12662 249.653 6.91101C249.87 6.6954 250.085 6.62319 250.372 6.62319C250.66 6.62319 250.876 6.69438 251.091 6.91101C251.307 7.12764 251.379 7.34223 251.379 7.63005C251.379 7.91787 251.308 8.13348 251.091 8.34909C250.875 8.5647 250.66 8.63691 250.372 8.63691C250.085 8.63691 249.869 8.56572 249.653 8.34909C249.438 8.13246 249.366 7.91787 249.366 7.63005ZM249.665 17.9814V10.0689L250.959 9.85328V17.9835L249.665 17.9814ZM253.755 12.0806C253.755 11.5049 253.755 11.1449 253.684 11.0025C253.684 10.7869 253.541 10.5713 253.396 10.2113L254.62 9.85125C254.816 10.2286 254.915 10.6493 254.907 11.0747C255.699 10.2835 256.562 9.85125 257.426 9.85125C257.857 9.85125 258.217 9.92244 258.577 10.1391C258.937 10.3557 259.225 10.6425 259.368 11.0036C259.51 11.2914 259.584 11.5792 259.584 11.9392V17.9824H258.36V12.5871C258.36 11.9392 258.289 11.509 258.072 11.2924C257.96 11.1772 257.826 11.0858 257.678 11.024C257.529 10.9621 257.37 10.9309 257.209 10.9324C256.921 10.9324 256.49 11.0747 256.058 11.2924C255.658 11.4966 255.294 11.7638 254.979 12.0836V17.9824H253.755V12.0806ZM262.461 11.7928L261.813 10.9283C262.891 10.2092 263.971 9.85024 265.123 9.85024C266.274 9.85024 266.994 10.2815 267.353 11.0737C267.495 11.3615 267.495 11.7928 267.495 12.4406V12.8718L267.424 15.4622V15.8223C267.424 16.2535 267.424 16.5413 267.495 16.7579C267.566 17.0457 267.783 17.2614 268.071 17.4058L267.423 18.2703C266.847 18.0546 266.487 17.6946 266.345 17.119C265.626 17.838 264.834 18.197 264.042 18.197C263.251 18.197 262.603 17.9814 262.11 17.5492C261.679 17.1891 261.462 16.6135 261.462 15.8945C261.443 15.4827 261.533 15.0731 261.722 14.707C261.912 14.3408 262.194 14.031 262.541 13.8085C263.26 13.3051 264.339 13.0895 265.635 13.0895H266.211V12.5138C266.211 11.866 266.14 11.4358 265.923 11.2904C265.787 11.143 265.619 11.0278 265.433 10.9532C265.246 10.8786 265.045 10.8465 264.845 10.8591C264.414 10.8591 263.909 11.0015 263.334 11.2192L262.469 11.7948L262.461 11.7928ZM266.275 16.0379L266.346 13.9529H265.698C264.547 13.9529 263.827 14.1686 263.396 14.6008C263.108 14.8886 262.964 15.3198 262.964 15.8955C262.964 16.8312 263.396 17.3346 264.331 17.3346C264.74 17.3112 265.134 17.1788 265.474 16.9511C265.814 16.7234 266.087 16.4087 266.264 16.0399L266.275 16.0379ZM271.598 10.0658H273.612L273.252 11.0829H271.597V16.1914C271.597 16.6227 271.668 16.9105 271.813 17.1271C271.955 17.2695 272.244 17.4149 272.604 17.4149C272.892 17.4149 273.179 17.3437 273.395 17.2725L273.537 18.0638C273.106 18.2794 272.673 18.3516 272.171 18.3516C270.947 18.3516 270.372 17.776 270.372 16.5535V11.0859H269.293V10.0689H270.31V9.92651C270.31 9.78413 270.382 9.20747 270.453 8.2718V8.05517L271.748 7.76735C271.605 8.63183 271.605 9.42206 271.605 10.0699L271.598 10.0658ZM274.907 14.0221C274.907 12.7274 275.195 11.7195 275.843 11.0015C276.419 10.2825 277.282 9.85024 278.289 9.85024C279.44 9.85024 280.374 10.2815 281.023 11.2171C281.526 11.9362 281.742 12.9441 281.742 14.1665C281.742 15.6056 281.311 16.7569 280.518 17.476C279.923 17.9993 279.153 18.2815 278.36 18.2672C277.282 18.2672 276.489 17.9072 275.842 17.1159C275.266 16.3969 274.907 15.3178 274.907 14.0221ZM280.016 11.9372C279.656 11.2893 279.152 10.9202 278.361 10.9202C277.571 10.9202 277.067 11.208 276.707 11.7846C276.419 12.2159 276.347 12.9359 276.347 13.8696C276.347 15.093 276.489 15.9545 276.85 16.4599C277.211 16.9654 277.714 17.2512 278.433 17.2512C279.297 17.2512 279.872 16.82 280.159 16.0277C280.302 15.5965 280.375 15.0107 280.375 14.3008C280.375 13.2227 280.233 12.4294 280.015 11.927L280.016 11.9372ZM284.115 11.9352C284.115 11.2161 284.044 10.6405 283.827 10.2082L285.05 9.8482C285.247 10.2255 285.346 10.6462 285.338 11.0717V11.2141C285.986 10.3496 286.705 9.91939 287.569 9.91939C287.711 9.91939 287.856 9.91939 288 9.99058L287.496 11.3575C287.354 11.2863 287.209 11.2863 287.136 11.2863C286.849 11.2863 286.488 11.3575 286.201 11.5741C285.913 11.7907 285.625 12.0053 285.482 12.2931C285.387 12.5712 285.338 12.8629 285.338 13.1566V18.1197H284.115V11.9352Z" fill="#AAAAAA" fill-opacity="0.960784"/>
<defs>
<clipPath id="clip0_502_40">
<rect width="73.2" height="21.35" fill="white" transform="translate(81.5688 1.83447)"/>
</clipPath>
</defs>
</svg>
