<svg width="187" height="32" viewBox="0 0 187 32" fill="none" xmlns="http://www.w3.org/2000/svg">
<mask id="mask0_496_2197" style="mask-type:luminance" maskUnits="userSpaceOnUse" x="37" y="0" width="22" height="19">
<path d="M53.4618 18.5092L43.053 18.4257L37.7656 9.17072L42.887 0L53.4609 0L58.7483 9.25409L53.4618 18.5092ZM44.0813 16.4194H52.2684L56.3614 9.25409L52.2684 2.08882L44.0813 2.08882L39.9883 9.25409L44.0813 16.4194Z" fill="white"/>
</mask>
<g mask="url(#mask0_496_2197)">
<mask id="mask1_496_2197" style="mask-type:luminance" maskUnits="userSpaceOnUse" x="37" y="-1" width="23" height="20">
<path d="M59.1799 -0.439453L37.3281 -0.439453V18.9482H59.1799V-0.439453Z" fill="white"/>
</mask>
<g mask="url(#mask1_496_2197)">
<path d="M59.2009 -0.470703L37.2969 -0.470703V18.967H59.2009V-0.470703Z" fill="url(#paint0_linear_496_2197)"/>
</g>
</g>
<mask id="mask2_496_2197" style="mask-type:luminance" maskUnits="userSpaceOnUse" x="19" y="0" width="26" height="19">
<path d="M20.8771 9.945L25.3423 2.12875L33.5467 2.12875L37.9474 9.83162L42.7028 18.1872C43.3321 17.8903 43.8615 17.4151 44.4898 17.1165L39.6581 8.58779L34.7409 0.0390625L24.1496 0.0390625L19.2812 8.56067L20.8771 9.945Z" fill="white"/>
</mask>
<g mask="url(#mask2_496_2197)">
<mask id="mask3_496_2197" style="mask-type:luminance" maskUnits="userSpaceOnUse" x="18" y="-1" width="27" height="20">
<path d="M44.9216 -0.397705L18.8438 -0.397705V18.6289H44.9216V-0.397705Z" fill="white"/>
</mask>
<g mask="url(#mask3_496_2197)">
<path d="M44.9304 -0.426331L18.8125 -0.426331V18.6319H44.9304V-0.426331Z" fill="url(#paint1_linear_496_2197)"/>
</g>
</g>
<path d="M15.8874 0.0390015L5.29607 0.0390015L0 9.30809L7.91064 23.2003L7.90542 23.2039L12.9042 31.9519H23.4954L28.7907 22.6837L20.8045 8.58772L15.8874 0.0390015ZM9.96979 22.6259L2.38683 9.30982L6.48948 2.12782L14.694 2.12782L19.0947 9.83069L26.5212 22.4519L22.3029 29.8614H14.0985L9.96979 22.6259Z" fill="url(#paint2_linear_496_2197)"/>
<path d="M28.8251 22.6256L21.6864 10.1511L19.9453 11.2913L26.7625 23.2036L31.7604 31.9509H42.3516L47.6469 22.6836L39.6606 8.58759L38.5985 6.74023L36.8053 7.82597L37.9509 9.83142L45.2618 22.6782L41.1583 29.862H32.9538L28.8251 22.6256Z" fill="white"/>
<path d="M73.3096 5.86376L77.382 22.6916L81.9698 5.86376H83.9287L88.3619 22.7475L92.4858 5.86376H94.522L89.3929 26.2696H87.4082L82.9235 8.85475L78.2841 26.2696H76.3252L71.2734 5.86376H73.3096Z" fill="white"/>
<path d="M104.773 11.678C107.574 11.678 108.974 13.2341 108.974 16.3462V21.6014C108.974 24.7135 107.574 26.2696 104.773 26.2696H100.03C97.6418 26.2696 96.4476 24.9837 96.4476 22.412V21.266C96.4476 19.1042 97.5817 18.0234 99.8498 18.0234H106.061V19.6726H100.34C98.9477 19.6726 98.2518 20.3155 98.2518 21.6014V22.2723C98.2518 23.7631 98.9563 24.5085 100.365 24.5085H104.463C106.216 24.5085 107.092 23.5208 107.092 21.5455V16.5419C107.092 14.6224 106.242 13.6627 104.541 13.6627H96.86V11.678H104.773Z" fill="white"/>
<path d="M114.149 5.66809V26.2696H112.267V5.66809H114.149Z" fill="white"/>
<path d="M119.516 5.66809V26.2696H117.635V5.66809H119.516Z" fill="white"/>
<path d="M133.028 11.678V13.7186H127.384C125.597 13.7186 124.703 14.7063 124.703 16.6816V21.266C124.703 23.2599 125.597 24.2569 127.384 24.2569H133.028V26.2696H127.023C124.222 26.2696 122.822 24.7135 122.822 21.6014V16.3462C122.822 13.2341 124.222 11.678 127.023 11.678H133.028Z" fill="white"/>
<path d="M138.003 5.66809V11.678H144.756C147.557 11.678 148.957 13.2341 148.957 16.3462V26.2696H147.076V16.6816C147.076 14.7063 146.182 13.7186 144.395 13.7186H138.003V26.2696H136.122V5.66809H138.003Z" fill="white"/>
<path d="M160.404 11.678C163.205 11.678 164.606 13.2341 164.606 16.3462V21.6014C164.606 24.7135 163.205 26.2696 160.404 26.2696H155.662C153.273 26.2696 152.079 24.9837 152.079 22.412V21.266C152.079 19.1042 153.213 18.0234 155.481 18.0234H161.693V19.6726H155.971C154.579 19.6726 153.883 20.3155 153.883 21.6014V22.2723C153.883 23.7631 154.588 24.5085 155.997 24.5085H160.095C161.848 24.5085 162.724 23.5208 162.724 21.5455V16.5419C162.724 14.6224 161.873 13.6627 160.172 13.6627H152.492V11.678H160.404Z" fill="white"/>
<path d="M169.78 11.8178V26.2696H167.899V11.8178H169.78ZM169.78 5.66809V8.91066H167.899V5.66809H169.78Z" fill="white"/>
<path d="M181.901 11.678C184.701 11.678 186.102 13.2341 186.102 16.3462V26.2696H184.22V16.6816C184.22 14.7063 183.327 13.7186 181.54 13.7186H175.148V26.2696H173.266V11.678H181.901Z" fill="white"/>
<defs>
<linearGradient id="paint0_linear_496_2197" x1="53.3856" y1="16.7928" x2="35.2482" y2="8.59009" gradientUnits="userSpaceOnUse">
<stop offset="0.339239" stop-color="white"/>
<stop offset="0.488271" stop-color="white" stop-opacity="0.9"/>
<stop offset="0.622399" stop-color="white" stop-opacity="0.7"/>
<stop offset="0.907109" stop-color="white" stop-opacity="0"/>
</linearGradient>
<linearGradient id="paint1_linear_496_2197" x1="37.9963" y1="16.5001" x2="17.9963" y2="5.50012" gradientUnits="userSpaceOnUse">
<stop offset="0.339239" stop-color="white"/>
<stop offset="0.488271" stop-color="white" stop-opacity="0.9"/>
<stop offset="0.622399" stop-color="white" stop-opacity="0.7"/>
<stop offset="0.907109" stop-color="white" stop-opacity="0"/>
</linearGradient>
<linearGradient id="paint2_linear_496_2197" x1="28.264" y1="23.1633" x2="-1.16169" y2="8.271" gradientUnits="userSpaceOnUse">
<stop offset="0.0134708" stop-color="white" stop-opacity="0"/>
<stop offset="0.176937" stop-color="white" stop-opacity="0.7"/>
<stop offset="0.266035" stop-color="white" stop-opacity="0.9"/>
<stop offset="0.365934" stop-color="white"/>
</linearGradient>
</defs>
</svg>
