<svg width="16" height="16" viewBox="0 0 16 16" fill="none" xmlns="http://www.w3.org/2000/svg">
<rect width="16" height="16" rx="4" fill="#FFA726"/>
<path d="M14 6L14.4472 6.22361L14.559 6L14.4472 5.77639L14 6ZM13 8V8.5H13.309L13.4472 8.22361L13 8ZM11 8L10.5528 8.22361L10.691 8.5H11V8ZM10 6L9.55279 5.77639L9.44098 6L9.55279 6.22361L10 6ZM11 4V3.5H10.691L10.5528 3.77639L11 4ZM13 4L13.4472 3.77639L13.309 3.5H13V4ZM14 6L13.5528 5.77639L12.5528 7.77639L13 8L13.4472 8.22361L14.4472 6.22361L14 6ZM13 8V7.5H11V8V8.5H13V8ZM11 8L11.4472 7.77639L10.4472 5.77639L10 6L9.55279 6.22361L10.5528 8.22361L11 8ZM10 6L10.4472 6.22361L11.4472 4.22361L11 4L10.5528 3.77639L9.55279 5.77639L10 6ZM11 4V4.5H13V4V3.5H11V4ZM13 4L12.5528 4.22361L13.5528 6.22361L14 6L14.4472 5.77639L13.4472 3.77639L13 4Z" fill="black"/>
<path d="M8 10L8.44721 10.2236L8.55902 10L8.44721 9.77639L8 10ZM7 12V12.5H7.30902L7.44721 12.2236L7 12ZM5 12L4.55279 12.2236L4.69098 12.5H5V12ZM2 6L1.55279 5.77639L1.44098 6L1.55279 6.22361L2 6ZM3 4V3.5H2.69098L2.55279 3.77639L3 4ZM5 4L5.44721 3.77639L5.30902 3.5H5V4ZM8 10L7.55279 9.77639L6.55279 11.7764L7 12L7.44721 12.2236L8.44721 10.2236L8 10ZM7 12V11.5H5V12V12.5H7V12ZM5 12L5.44721 11.7764L2.44721 5.77639L2 6L1.55279 6.22361L4.55279 12.2236L5 12ZM2 6L2.44721 6.22361L3.44721 4.22361L3 4L2.55279 3.77639L1.55279 5.77639L2 6ZM3 4V4.5H5V4V3.5H3V4ZM5 4L4.55279 4.22361L7.55279 10.2236L8 10L8.44721 9.77639L5.44721 3.77639L5 4Z" fill="black"/>
<path d="M12 10L12.4472 10.2236L12.559 10L12.4472 9.77639L12 10ZM11 12V12.5H11.309L11.4472 12.2236L11 12ZM9 12L8.55279 12.2236L8.69098 12.5H9V12ZM6 6L5.55279 5.77639L5.44098 6L5.55279 6.22361L6 6ZM7 4V3.5H6.69098L6.55279 3.77639L7 4ZM9 4L9.44721 3.77639L9.30902 3.5H9V4ZM12 10L11.5528 9.77639L10.5528 11.7764L11 12L11.4472 12.2236L12.4472 10.2236L12 10ZM11 12V11.5H9V12V12.5H11V12ZM9 12L9.44721 11.7764L6.44721 5.77639L6 6L5.55279 6.22361L8.55279 12.2236L9 12ZM6 6L6.44721 6.22361L7.44721 4.22361L7 4L6.55279 3.77639L5.55279 5.77639L6 6ZM7 4V4.5H9V4V3.5H7V4ZM9 4L8.55279 4.22361L11.5528 10.2236L12 10L12.4472 9.77639L9.44721 3.77639L9 4Z" fill="black"/>
</svg>
